<svg width="276" height="95" viewBox="0 0 276 95" fill="none" xmlns="http://www.w3.org/2000/svg">
    <path d="M37.0639 48.4268L44.7228 47.4724C46.9007 47.201 48.1307 45.8305 47.8908 43.9055C47.6645 42.0895 46.1222 40.9538 43.9443 41.2252L36.2854 42.1796C36.0313 42.2113 35.8407 42.4563 35.8678 42.6743L36.5377 48.0497C36.6057 48.2994 36.8098 48.4584 37.0639 48.4268Z" fill="#4A4756"/>
    <path d="M38.6072 60.8121L46.5202 59.8261C48.9522 59.523 50.2503 58.1072 49.9787 55.928C49.7434 54.0393 48.1739 52.6857 45.6694 52.9978L37.7564 53.9838C37.5023 54.0155 37.3116 54.2606 37.3388 54.4785L38.0765 60.3988C38.149 60.6848 38.3531 60.8438 38.6072 60.8121Z" fill="#4A4756"/>
    <path d="M60.7955 10.5029L40.9606 35.9168L44.663 35.4554C50.4344 34.7363 54.299 37.9432 54.7923 41.9021C55.1816 45.0257 53.3614 47.5762 51.2377 48.8736C50.8928 49.0642 50.9561 49.5726 51.3735 49.6682C54.1137 50.3595 56.3044 52.8529 56.7026 56.0491C57.2639 60.5528 54.6992 64.524 48.8552 65.2522L32.8114 67.2515C32.5573 67.2831 32.3124 67.0923 32.2852 66.8744L30.1535 49.7674L8.37594 77.6364C8.08999 78.004 8.3802 78.558 8.85207 78.4992L68.6351 71.0496C68.8529 71.0225 69.0118 70.8183 68.9846 70.6003L61.5259 10.7438C61.585 10.3307 61.0497 10.1761 60.7955 10.5029Z" fill="#4A4756"/>
    
    <g clip-path="url(#clip0)">
        <path d="M189.875 24.1661C189.368 24.3804 188.967 24.7862 188.757 25.2953C188.548 25.8045 188.548 26.3758 188.757 26.885L195.152 42.1992C195.366 42.7064 195.771 43.1086 196.28 43.3182C196.788 43.5278 197.359 43.5279 197.867 43.3185L200.18 42.3725L192.176 23.2168L189.875 24.1661ZM249.9 17.6996C249.315 18.2631 248.702 18.7969 248.063 19.2989C243.115 23.1876 236.784 25.0864 230.235 24.6441C223.687 24.2017 217.674 21.4689 213.293 16.9501C212.727 16.3667 212.192 15.7553 211.687 15.1181L192.176 23.2168L200.18 42.3725L205.425 40.2288C205.751 40.0965 206.105 40.0493 206.454 40.0916C206.803 40.134 207.135 40.2645 207.42 40.4709C207.705 40.6773 207.932 40.9528 208.081 41.2715C208.23 41.5902 208.296 41.9416 208.272 42.2927L206.055 75.1047C205.981 76.2028 206.346 77.2853 207.069 78.1142C207.792 78.943 208.814 79.4503 209.911 79.5244L242.994 81.7593C244.091 81.8334 245.172 81.4683 246 80.7442C246.828 80.0201 247.335 78.9965 247.409 77.8984L249.627 45.0734C249.65 44.7223 249.763 44.3829 249.953 44.0871C250.144 43.7914 250.406 43.549 250.716 43.3827C251.026 43.2165 251.373 43.1319 251.724 43.1368C252.076 43.1418 252.42 43.2362 252.725 43.4111L257.629 46.2444L262.881 37.2936L265.508 32.8183L268.134 28.3429L249.9 17.6996ZM270.297 29.6055L268.134 28.3429L265.508 32.8183L262.881 37.2936L257.629 46.2444L259.783 47.4882L259.791 47.4887C260.265 47.7664 260.831 47.8439 261.362 47.7044C261.894 47.5648 262.348 47.2195 262.626 46.7444L271.028 32.4429C271.167 32.2082 271.258 31.9484 271.297 31.6785C271.335 31.4085 271.32 31.1336 271.252 30.8695C271.184 30.6054 271.065 30.3572 270.902 30.1392C270.738 29.9213 270.533 29.7377 270.299 29.5991L270.297 29.6055Z" fill="#A4A5BC"/>
        <path d="M230.515 20.5038C223.809 20.0508 218.228 17.1522 215.873 13.3798L211.687 15.1181C212.192 15.7553 212.727 16.3667 213.293 16.9501C217.674 21.4689 223.692 24.2021 230.235 24.6441C236.778 25.0861 243.112 23.1874 248.061 19.2989C248.7 18.7968 249.313 18.2631 249.899 17.6995L245.985 15.414C243.144 18.8354 237.224 20.9569 230.515 20.5038Z" fill="#4A4756"/>
        
        <mask id="path-8-outside-1" maskUnits="userSpaceOnUse" x="198.884" y="24.5279" width="75.2854" height="66.1189" fill="black">
            <rect fill="white" x="198.884" y="24.5279" width="75.2854" height="66.1189"/>
            <path fill-rule="evenodd" clip-rule="evenodd" d="M216.728 33.2996C218.155 30.9353 221.239 30.1655 223.554 31.6712C234.791 38.9805 241.575 45.985 243.661 55.6344L240.76 60.4407L240.76 60.4407L237.951 65.0964L243.664 55.6362L259.173 64.9891C261.828 66.5902 262.681 70.0397 261.079 72.6938C259.476 75.3478 256.024 76.2014 253.369 74.6003L237.86 65.2474L237.86 65.2472C228.351 67.8996 218.991 65.1621 207.287 58.6266C204.876 57.2803 204.119 54.1929 205.546 51.8287L211.137 42.5642L211.137 42.5641L216.728 33.2996ZM257.705 70.9408C258.277 69.9944 257.997 68.7788 257.08 68.2256C256.163 67.6725 254.957 67.9913 254.386 68.9377C253.815 69.8841 254.095 71.0998 255.012 71.6529C255.928 72.2061 257.134 71.8873 257.705 70.9408Z"/>
        </mask>

        <path fill-rule="evenodd" clip-rule="evenodd" d="M216.728 33.2996C218.155 30.9353 221.239 30.1655 223.554 31.6712C234.791 38.9805 241.575 45.985 243.661 55.6344L240.76 60.4407L240.76 60.4407L237.951 65.0964L243.664 55.6362L259.173 64.9891C261.828 66.5902 262.681 70.0397 261.079 72.6938C259.476 75.3478 256.024 76.2014 253.369 74.6003L237.86 65.2474L237.86 65.2472C228.351 67.8996 218.991 65.1621 207.287 58.6266C204.876 57.2803 204.119 54.1929 205.546 51.8287L211.137 42.5642L211.137 42.5641L216.728 33.2996ZM257.705 70.9408C258.277 69.9944 257.997 68.7788 257.08 68.2256C256.163 67.6725 254.957 67.9913 254.386 68.9377C253.815 69.8841 254.095 71.0998 255.012 71.6529C255.928 72.2061 257.134 71.8873 257.705 70.9408Z" fill="#4A4756"/>
        <path d="M223.554 31.6712L225.189 29.1563L225.189 29.1563L223.554 31.6712ZM216.728 33.2996L219.296 34.8496L219.296 34.8496L216.728 33.2996ZM243.661 55.6344L246.229 57.1844L246.845 56.1647L246.593 55.0006L243.661 55.6344ZM240.76 60.4407L238.192 58.8907L236.642 61.4592L239.21 63.0093L240.76 60.4407ZM240.76 60.4407L243.329 61.9908L244.879 59.4222L242.31 57.8722L240.76 60.4407ZM237.951 65.0964L235.382 63.5463L240.519 66.6472L237.951 65.0964ZM243.664 55.6362L245.213 53.0672L242.645 51.5189L241.096 54.0854L243.664 55.6362ZM259.173 64.9891L257.624 67.5581L257.624 67.5581L259.173 64.9891ZM261.079 72.6938L263.647 74.2446L261.079 72.6938ZM253.369 74.6003L254.918 72.0313L254.918 72.0313L253.369 74.6003ZM237.86 65.2474L235.717 63.1472L233.061 65.8569L236.31 67.8164L237.86 65.2474ZM237.86 65.2472L240.002 67.3474L247.844 59.3477L237.054 62.3575L237.86 65.2472ZM207.287 58.6266L205.824 61.2459L207.287 58.6266ZM205.546 51.8287L208.115 53.3787L208.115 53.3787L205.546 51.8287ZM211.137 42.5642L213.706 44.1142L215.256 41.5457L212.687 39.9956L211.137 42.5642ZM211.137 42.5641L208.568 41.0141L207.018 43.5827L209.587 45.1327L211.137 42.5641ZM257.08 68.2256L258.63 65.6571L258.63 65.6571L257.08 68.2256ZM257.705 70.9408L255.137 69.3908L257.705 70.9408ZM254.386 68.9377L256.955 70.4877L254.386 68.9377ZM255.012 71.6529L253.462 74.2215L253.462 74.2215L255.012 71.6529ZM225.189 29.1563C221.395 26.6887 216.427 27.9915 214.159 31.7495L219.296 34.8496C219.882 33.8791 221.082 33.6423 221.918 34.186L225.189 29.1563ZM246.593 55.0006C244.252 44.1708 236.632 36.5989 225.189 29.1563L221.918 34.186C232.951 41.3621 238.898 47.7991 240.729 56.2681L246.593 55.0006ZM243.329 61.9908L246.229 57.1844L241.092 54.0843L238.192 58.8907L243.329 61.9908ZM242.31 57.8722L242.31 57.8722L239.21 63.0093L239.21 63.0093L242.31 57.8722ZM240.519 66.6464L243.329 61.9908L238.192 58.8907L235.382 63.5463L240.519 66.6464ZM241.096 54.0854L235.383 63.5455L240.519 66.6472L246.232 57.187L241.096 54.0854ZM260.722 62.4201L245.213 53.0672L242.114 58.2052L257.624 67.5581L260.722 62.4201ZM263.647 74.2446C266.106 70.1716 264.797 64.8772 260.722 62.4201L257.624 67.5581C258.86 68.3033 259.256 69.9078 258.51 71.143L263.647 74.2446ZM251.82 77.1693C255.893 79.6257 261.188 78.3163 263.647 74.2446L258.51 71.143C257.764 72.3793 256.155 72.7771 254.918 72.0313L251.82 77.1693ZM236.31 67.8164L251.82 77.1693L254.918 72.0313L239.409 62.6784L236.31 67.8164ZM235.718 63.1471L235.717 63.1472L240.002 67.3475L240.002 67.3474L235.718 63.1471ZM205.824 61.2459C217.742 67.9006 227.993 71.1137 238.666 68.1369L237.054 62.3575C228.708 64.6854 220.241 62.4237 208.749 56.0073L205.824 61.2459ZM202.978 50.2786C200.71 54.0367 201.873 59.0395 205.824 61.2459L208.749 56.0073C207.879 55.5212 207.529 54.3492 208.115 53.3787L202.978 50.2786ZM208.569 41.0141L202.978 50.2786L208.115 53.3787L213.706 44.1142L208.569 41.0141ZM209.587 45.1327L209.587 45.1327L212.687 39.9956L212.687 39.9956L209.587 45.1327ZM214.159 31.7495L208.568 41.0141L213.706 44.1142L219.296 34.8496L214.159 31.7495ZM255.53 70.7942C254.951 70.4449 254.899 69.7848 255.137 69.3908L260.274 72.4909C261.654 70.204 261.042 67.1127 258.63 65.6571L255.53 70.7942ZM256.955 70.4877C256.717 70.8818 256.109 71.1435 255.53 70.7942L258.63 65.6571C256.218 64.2015 253.198 65.1008 251.818 67.3877L256.955 70.4877ZM256.562 69.0844C257.141 69.4337 257.192 70.0937 256.955 70.4877L251.818 67.3877C250.438 69.6746 251.05 72.7659 253.462 74.2215L256.562 69.0844ZM255.137 69.3908C255.375 68.9968 255.983 68.7351 256.562 69.0844L253.462 74.2215C255.874 75.6771 258.894 74.7778 260.274 72.4909L255.137 69.3908Z" fill="white" mask="url(#path-8-outside-1)"/>
    </g>

    <path fill-rule="evenodd" clip-rule="evenodd" d="M145.658 34.2137C144.586 33.343 143.012 33.5059 142.141 34.5775C141.271 35.6491 141.433 37.2236 142.505 38.0943L144.082 36.154L142.505 38.0943L142.505 38.0945L142.507 38.0955L142.512 38.0997L142.533 38.1169L142.616 38.1846C142.689 38.2442 142.797 38.3319 142.934 38.444C143.208 38.6681 143.601 38.9893 144.071 39.3768C145.014 40.1525 146.268 41.1912 147.521 42.2478C147.618 42.3298 147.715 42.4118 147.812 42.4937L108.723 42.4937C107.342 42.4937 106.223 43.6129 106.223 44.9937C106.223 46.3744 107.342 47.4937 108.723 47.4937L148.136 47.4937C147.91 47.6993 147.682 47.9065 147.454 48.1136C146.201 49.2492 144.946 50.3671 144.003 51.202C143.532 51.6192 143.139 51.9651 142.865 52.2065C142.727 52.3272 142.62 52.4217 142.546 52.4859L142.463 52.5589L142.442 52.5774L142.437 52.582L142.436 52.5831L142.435 52.5833L144.066 54.4473L142.435 52.5834C141.396 53.4926 141.291 55.072 142.2 56.1111C143.109 57.1502 144.689 57.2555 145.728 56.3463L144.291 54.704C145.728 56.3463 145.728 56.3462 145.728 56.3461L145.728 56.3457L145.73 56.3444L145.736 56.3394L145.758 56.3199L145.843 56.2449C145.918 56.1793 146.028 56.0833 146.167 55.961C146.445 55.7165 146.841 55.3669 147.317 54.9455C148.269 54.1033 149.539 52.9717 150.812 51.8185C152.08 50.6693 153.367 49.4827 154.345 48.5355C154.829 48.0664 155.267 47.6276 155.595 47.2689C155.754 47.0951 155.928 46.8959 156.076 46.6966C156.148 46.6006 156.254 46.451 156.353 46.2683L156.357 46.2596C156.415 46.155 156.684 45.6623 156.684 44.9937C156.684 44.3077 156.402 43.8078 156.339 43.6966L156.335 43.6889C156.229 43.5004 156.116 43.3482 156.041 43.2522C155.886 43.0531 155.706 42.8582 155.545 42.6922C155.212 42.3487 154.77 41.9335 154.284 41.4936C153.304 40.6049 152.014 39.4968 150.745 38.4263C149.472 37.3519 148.2 36.2991 147.249 35.516C146.772 35.1241 146.375 34.7991 146.097 34.5719C145.958 34.4582 145.849 34.369 145.774 34.308L145.688 34.2382L145.666 34.2201L145.66 34.2154L145.659 34.2142L145.658 34.2138C145.658 34.2138 145.658 34.2137 144.082 36.154L145.658 34.2137Z" fill="#4A4756"/>
    
    <defs>
        <clipPath id="clip0">
            <rect x="187.571" y="0.44223" width="88.3971" height="88.3971" transform="rotate(3.86473 187.571 0.44223)" fill="white"/>
        </clipPath>
    </defs>
</svg>
