<svg width="125" height="125" viewBox="0 0 125 125" fill="none" xmlns="http://www.w3.org/2000/svg">
    <path d="M62.5 1.95312C29.0632 1.95312 1.95312 29.073 1.95312 62.5C1.95312 95.9465 29.0632 123.047 62.5 123.047C95.9368 123.047 123.047 95.9465 123.047 62.5C123.047 29.073 95.9368 1.95312 62.5 1.95312ZM62.5 111.328C35.5146 111.328 13.6719 89.4944 13.6719 62.5C13.6719 35.5237 35.5156 13.6719 62.5 13.6719C89.4753 13.6719 111.328 35.5154 111.328 62.5C111.328 89.4849 89.4944 111.328 62.5 111.328ZM72.7539 85.9375C72.7539 91.5916 68.1541 96.1914 62.5 96.1914C56.8459 96.1914 52.2461 91.5916 52.2461 85.9375C52.2461 80.2834 56.8459 75.6836 62.5 75.6836C68.1541 75.6836 72.7539 80.2834 72.7539 85.9375ZM52.8882 34.3259L54.5483 67.5291C54.6262 69.0884 55.9133 70.3125 57.4744 70.3125H67.5256C69.0867 70.3125 70.3738 69.0884 70.4517 67.5291L72.1118 34.3259C72.1956 32.6526 70.8613 31.25 69.1858 31.25H55.8142C54.1387 31.25 52.8044 32.6526 52.8882 34.3259V34.3259Z" fill="#4A4756"/>
</svg>
