<svg width="125" height="125" viewBox="0 0 125 125" fill="none" xmlns="http://www.w3.org/2000/svg">
    <g clip-path="url(#clip0)">
        <path d="M0 122.07V73.1616C0 72.3846 0.308663 71.6394 0.858086 71.09C1.40751 70.5406 2.15269 70.2319 2.92969 70.2319H51.8384C52.6154 70.2319 53.3606 70.5406 53.91 71.09C54.4594 71.6394 54.7681 72.3846 54.7681 73.1616V84.7363C54.7685 85.133 54.6884 85.5257 54.5325 85.8906C54.3767 86.2554 54.1483 86.5848 53.8614 86.8587C53.5744 87.1327 53.2348 87.3455 52.8631 87.4842C52.4915 87.623 52.0955 87.6848 51.6992 87.666L26.8286 86.4746C31.4844 93.3967 38.0538 98.8146 45.7356 102.067C53.4175 105.32 61.8799 106.268 70.0909 104.794C78.3019 103.32 85.9067 99.4892 91.9778 93.7679C98.049 88.0466 102.324 80.6824 104.282 72.5732C104.433 71.9305 104.796 71.3576 105.313 70.9472C105.831 70.5369 106.471 70.3132 107.131 70.3125H119.116C119.546 70.3125 119.971 70.4071 120.36 70.5895C120.749 70.772 121.093 71.0378 121.368 71.3682C121.643 71.6986 121.842 72.0854 121.951 72.5013C122.059 72.9171 122.075 73.3517 121.997 73.7744C116.716 101.826 92.0874 123.047 62.5 123.047C53.7345 123.055 45.0721 121.156 37.1142 117.481C29.1562 113.806 22.0934 108.444 16.416 101.765L17.4243 121.924C17.4442 122.321 17.3831 122.717 17.2448 123.09C17.1065 123.463 16.8938 123.803 16.6198 124.091C16.3457 124.379 16.016 124.608 15.6507 124.764C15.2853 124.92 14.892 125 14.4946 125H2.92969C2.15269 125 1.40751 124.691 0.858086 124.142C0.308663 123.592 0 122.847 0 122.07H0Z" fill="#A4A5BC"/>
        <path d="M3.00291 51.2256C8.28367 23.1738 32.9126 1.95314 62.5 1.95314C71.2746 1.94415 79.9458 3.8471 87.9102 7.52957C95.8747 11.212 102.941 16.5856 108.618 23.2764L107.642 3.06886C107.623 2.67217 107.685 2.27578 107.824 1.90379C107.963 1.53179 108.176 1.19196 108.451 0.904927C108.725 0.617898 109.055 0.389669 109.42 0.234108C109.786 0.0785463 110.179 -0.0010988 110.576 1.14496e-05H122.151C122.928 1.14496e-05 123.673 0.308674 124.222 0.858097C124.772 1.40752 125.081 2.1527 125.081 2.9297V51.8384C125.081 52.6154 124.772 53.3606 124.222 53.91C123.673 54.4594 122.928 54.7681 122.151 54.7681H73.2422C72.4652 54.7681 71.72 54.4594 71.1706 53.91C70.6211 53.3606 70.3125 52.6154 70.3125 51.8384V40.2637C70.312 39.867 70.3922 39.4743 70.548 39.1094C70.7039 38.7446 70.9322 38.4152 71.2192 38.1413C71.5061 37.8673 71.8457 37.6545 72.2174 37.5158C72.5891 37.377 72.985 37.3152 73.3813 37.334L98.1689 38.5254C93.5129 31.604 86.9436 26.1869 79.2621 22.9345C71.5806 19.6822 63.1187 18.7351 54.9082 20.2087C46.6977 21.6824 39.0934 25.5131 33.0224 31.2339C26.9514 36.9546 22.6761 44.3182 20.7178 52.4268C20.567 53.0695 20.2036 53.6425 19.6865 54.0528C19.1694 54.4631 18.5288 54.6868 17.8686 54.6875H5.88377C5.45396 54.6875 5.02942 54.5929 4.64025 54.4105C4.25108 54.228 3.90683 53.9622 3.6319 53.6318C3.35697 53.3014 3.1581 52.9146 3.0494 52.4988C2.9407 52.0829 2.92483 51.6483 3.00291 51.2256V51.2256Z" fill="#4A4756"/>
    </g>
    <defs>
        <clipPath id="clip0">
            <rect width="125" height="125" fill="white"/>
        </clipPath>
    </defs>
</svg>
