<svg width="25" height="25" viewBox="0 0 25 25" fill="none" xmlns="http://www.w3.org/2000/svg">
<path d="M18.3594 12.5C18.3594 11.8528 18.884 11.3281 19.5312 11.3281C20.1785 11.3281 20.7031 11.8528 20.7031 12.5C20.7031 13.1472 20.1785 13.6719 19.5312 13.6719C18.884 13.6719 18.3594 13.1472 18.3594 12.5ZM16.4062 13.6719C17.0535 13.6719 17.5781 13.1472 17.5781 12.5C17.5781 11.8528 17.0535 11.3281 16.4062 11.3281C15.759 11.3281 15.2344 11.8528 15.2344 12.5C15.2344 13.1472 15.759 13.6719 16.4062 13.6719ZM25 7.42188C25 8.02227 24.774 8.56968 24.4027 8.98438C24.774 9.39907 25 9.94648 25 10.5469V14.4531C25 15.0535 24.774 15.6009 24.4027 16.0156C24.774 16.4303 25 16.9777 25 17.5781V21.4844C25 22.7788 23.9507 23.8281 22.6562 23.8281H2.34375C1.04932 23.8281 0 22.7788 0 21.4844V17.5781C0 16.9777 0.226025 16.4303 0.597266 16.0156C0.226025 15.6009 0 15.0535 0 14.4531V10.5469C0 9.94648 0.226025 9.39907 0.597266 8.98438C0.226025 8.56968 0 8.02227 0 7.42188V3.51562C0 2.22119 1.04932 1.17188 2.34375 1.17188H22.6562C23.9507 1.17188 25 2.22119 25 3.51562V7.42188ZM1.5625 7.42188C1.5625 7.85264 1.91299 8.20312 2.34375 8.20312H22.6562C23.087 8.20312 23.4375 7.85264 23.4375 7.42188V3.51562C23.4375 3.08486 23.087 2.73438 22.6562 2.73438H2.34375C1.91299 2.73438 1.5625 3.08486 1.5625 3.51562V7.42188ZM22.6562 9.76562H2.34375C1.91299 9.76562 1.5625 10.1161 1.5625 10.5469V14.4531C1.5625 14.8839 1.91299 15.2344 2.34375 15.2344H22.6562C23.087 15.2344 23.4375 14.8839 23.4375 14.4531V10.5469C23.4375 10.1161 23.087 9.76562 22.6562 9.76562ZM23.4375 17.5781C23.4375 17.1474 23.087 16.7969 22.6562 16.7969H2.34375C1.91299 16.7969 1.5625 17.1474 1.5625 17.5781V21.4844C1.5625 21.9151 1.91299 22.2656 2.34375 22.2656H22.6562C23.087 22.2656 23.4375 21.9151 23.4375 21.4844V17.5781ZM19.5312 6.64062C20.1785 6.64062 20.7031 6.11597 20.7031 5.46875C20.7031 4.82153 20.1785 4.29688 19.5312 4.29688C18.884 4.29688 18.3594 4.82153 18.3594 5.46875C18.3594 6.11597 18.884 6.64062 19.5312 6.64062ZM16.4062 6.64062C17.0535 6.64062 17.5781 6.11597 17.5781 5.46875C17.5781 4.82153 17.0535 4.29688 16.4062 4.29688C15.759 4.29688 15.2344 4.82153 15.2344 5.46875C15.2344 6.11597 15.759 6.64062 16.4062 6.64062ZM19.5312 18.3594C18.884 18.3594 18.3594 18.884 18.3594 19.5312C18.3594 20.1785 18.884 20.7031 19.5312 20.7031C20.1785 20.7031 20.7031 20.1785 20.7031 19.5312C20.7031 18.884 20.1785 18.3594 19.5312 18.3594ZM16.4062 18.3594C15.759 18.3594 15.2344 18.884 15.2344 19.5312C15.2344 20.1785 15.759 20.7031 16.4062 20.7031C17.0535 20.7031 17.5781 20.1785 17.5781 19.5312C17.5781 18.884 17.0535 18.3594 16.4062 18.3594Z" fill="#4E555B"/>
</svg>
