<svg width="30" height="25" viewBox="0 0 30 25" fill="none" xmlns="http://www.w3.org/2000/svg">
<path d="M26.6732 14.0039C26.9438 13.9674 27.211 13.9086 27.4719 13.8281V23.4375C27.4719 23.8519 27.3077 24.2493 27.0155 24.5424C26.7232 24.8354 26.3268 25 25.9135 25H4.09091C3.67759 25 3.28119 24.8354 2.98893 24.5424C2.69666 24.2493 2.53247 23.8519 2.53247 23.4375V13.8281C2.79451 13.9045 3.06133 13.9632 3.33117 14.0039C3.62176 14.0429 3.91461 14.0625 4.2078 14.0625C4.69227 14.0548 5.17436 13.9926 5.64497 13.877V18.75H24.3507V13.877C24.8208 13.995 25.3032 14.0573 25.7878 14.0625C26.0839 14.0625 26.3797 14.0429 26.6732 14.0039V14.0039Z" fill="#91969B"/>
<path d="M29.3182 5.79102C30.9546 8.40821 29.5033 12.041 26.4448 12.4512C26.2236 12.4807 26.0007 12.4954 25.7776 12.4951C25.0988 12.4944 24.4277 12.3501 23.8083 12.0716C23.1889 11.7931 22.635 11.3867 22.183 10.8789C21.3341 11.8341 20.1416 12.4122 18.8678 12.4862C17.5939 12.5602 16.3428 12.1239 15.3896 11.2734C15.2508 11.1499 15.1194 11.0181 14.9961 10.8789C14.146 11.8346 12.9521 12.4127 11.677 12.4859C10.4018 12.5592 9.14987 12.1216 8.19645 11.2695C8.05914 11.147 7.92905 11.0166 7.80683 10.8789C7.35542 11.3875 6.80171 11.7944 6.18215 12.073C5.56258 12.3515 4.8912 12.4954 4.21219 12.4951C3.98907 12.4951 3.76619 12.4805 3.54498 12.4512C0.492873 12.0361 -0.953556 8.40332 0.681834 5.79102L3.83914 0.732425C3.97961 0.507822 4.17477 0.322746 4.40626 0.194616C4.63774 0.0664851 4.89794 -0.00048681 5.16235 2.66388e-06H24.8377C25.1013 0.000340445 25.3605 0.067706 25.591 0.195798C25.8216 0.32389 26.016 0.508522 26.156 0.732425L29.3182 5.79102Z" fill="#5A6670"/>
</svg>
