<svg width="25" height="25" viewBox="0 0 50 50" fill="none" xmlns="http://www.w3.org/2000/svg">
    <path d="M25 0.78125C11.1895 0.78125 0 11.6211 0 25C0 38.3789 11.1895 49.2188 25 49.2188C38.8105 49.2188 50 38.3789 50 25C50 11.6211 38.8105 0.78125 25 0.78125ZM25 10.1562C29.8992 10.1562 33.871 14.0039 33.871 18.75C33.871 23.4961 29.8992 27.3438 25 27.3438C20.1008 27.3438 16.129 23.4961 16.129 18.75C16.129 14.0039 20.1008 10.1562 25 10.1562ZM25 43.75C19.0827 43.75 13.7802 41.1523 10.2319 37.0898C12.127 33.6328 15.8367 31.25 20.1613 31.25C20.4032 31.25 20.6452 31.2891 20.877 31.3574C22.1875 31.7676 23.5585 32.0312 25 32.0312C26.4415 32.0312 27.8226 31.7676 29.123 31.3574C29.3548 31.2891 29.5968 31.25 29.8387 31.25C34.1633 31.25 37.873 33.6328 39.7681 37.0898C36.2198 41.1523 30.9173 43.75 25 43.75Z" fill="#4E555B"/>
</svg>
