<svg width="30" height="34" viewBox="0 0 30 34" fill="none" xmlns="http://www.w3.org/2000/svg">
<path d="M2 11V10.9927L7.45439 10.9961V9.19606C7.4578 5.22594 10.7219 2 14.732 2C18.7421 2 22.0045 5.23381 22 9.20394V11H18.3637V9.2C18.3643 8.24522 17.9818 7.32931 17.3003 6.65376C16.6188 5.9782 15.6941 5.59835 14.7297 5.59775C13.7654 5.59715 12.8402 5.97587 12.1579 6.65057C11.4755 7.32528 11.0918 8.24072 11.0912 9.1955V10.9955H14.7275L2 11Z" fill="#91969B"/>
<path d="M2.00928 11L2 26.4453C1.99962 27.0419 2.1193 27.6327 2.35222 28.184C2.58514 28.7353 2.92672 29.2363 3.35748 29.6584C3.78823 30.0805 4.29972 30.4154 4.86273 30.644C5.42574 30.8727 6.02926 30.9905 6.63882 30.9909L23.349 31C24.5801 31 25.7607 30.5214 26.6312 29.6695C27.5017 28.8175 27.9907 27.6621 27.9907 26.4573L28 11.0119L2.00928 11ZM9.43255 16.001C9.15714 16.001 8.88791 15.9211 8.65891 15.7713C8.42991 15.6216 8.25143 15.4087 8.14603 15.1597C8.04064 14.9107 8.01306 14.6367 8.06679 14.3723C8.12052 14.1079 8.25315 13.8651 8.44789 13.6745C8.64264 13.4839 8.89076 13.3541 9.16088 13.3015C9.43101 13.2489 9.71099 13.2759 9.96544 13.3791C10.2199 13.4822 10.4374 13.6569 10.5904 13.881C10.7434 14.1051 10.8251 14.3686 10.8251 14.6382C10.8251 14.9996 10.6784 15.3463 10.4172 15.6018C10.1561 15.8574 9.80187 16.001 9.43255 16.001ZM20.5727 16.0078C20.2973 16.0078 20.028 15.9279 19.799 15.7781C19.57 15.6284 19.3916 15.4155 19.2862 15.1665C19.1808 14.9175 19.1532 14.6435 19.2069 14.3791C19.2606 14.1147 19.3933 13.8719 19.588 13.6813C19.7828 13.4907 20.0309 13.3609 20.301 13.3083C20.5711 13.2558 20.8511 13.2828 21.1056 13.3859C21.36 13.489 21.5775 13.6637 21.7305 13.8878C21.8835 14.112 21.9652 14.3754 21.9652 14.645C21.9652 15.0064 21.8185 15.3531 21.5573 15.6086C21.2962 15.8642 20.942 16.0078 20.5727 16.0078Z" fill="#5A6670"/>
</svg>
