<svg width="50" height="50" viewBox="0 0 96 100" fill="none" xmlns="http://www.w3.org/2000/svg">
    <g clip-path="url(#clip0)">
        <path d="M10.7023 23.4268C10.18 23.5996 9.74696 23.9718 9.49724 24.4624C9.24752 24.9531 9.20134 25.5225 9.36874 26.0469L14.511 41.826C14.6834 42.3488 15.055 42.7822 15.545 43.032C16.0351 43.2819 16.6038 43.3279 17.1277 43.1601L19.5087 42.4033L13.0721 22.6657L10.7023 23.4268ZM71.0529 21.8107C70.4241 22.3253 69.77 22.808 69.0929 23.257C63.8481 26.735 57.3847 28.1183 50.8934 27.1505C44.402 26.1827 38.6283 22.975 34.6248 18.1183C34.1081 17.4913 33.6232 16.8388 33.1719 16.1631L13.0721 22.6657L19.5087 42.4033L24.9097 40.6885C25.245 40.5828 25.6017 40.5643 25.9461 40.6346C26.2905 40.7049 26.6113 40.8617 26.8784 41.0903C27.1456 41.319 27.3502 41.6119 27.4731 41.9415C27.596 42.2712 27.6331 42.6267 27.5809 42.9748L22.7315 75.5021C22.5692 76.5906 22.8455 77.699 23.4996 78.5833C24.1536 79.4677 25.1319 80.0556 26.2191 80.2177L59.0154 85.1072C60.1027 85.2692 61.2099 84.9923 62.0934 84.3372C62.977 83.6821 63.5646 82.7025 63.7269 81.6139L68.5782 49.0738C68.6298 48.7257 68.769 48.3964 68.9827 48.117C69.1964 47.8375 69.4776 47.617 69.7998 47.4762C70.122 47.3355 70.4746 47.279 70.8245 47.3122C71.1744 47.3455 71.5102 47.4672 71.8001 47.6661L76.4603 50.8848L82.4157 42.3857L85.3934 38.1361L88.3711 33.8865L71.0529 21.8107ZM90.4257 35.3191L88.3711 33.8865L85.3934 38.1361L82.4157 42.3857L76.4603 50.8848L78.5073 52.2979L78.515 52.2991C78.9656 52.614 79.5228 52.7368 80.0639 52.6404C80.6051 52.5441 81.0859 52.2365 81.4007 51.7853L90.9264 38.2061C91.0836 37.9834 91.1955 37.7318 91.2555 37.4658C91.3155 37.1998 91.3226 36.9245 91.2763 36.6558C91.23 36.3871 91.1313 36.1302 90.9857 35.8998C90.8401 35.6693 90.6506 35.4699 90.428 35.3129L90.4257 35.3191Z" fill="#82878C"/>
        <path d="M51.3955 23.7938C44.5741 22.7768 39.141 19.1092 37.096 14.7093L32.642 16.3358C33.0965 17.0871 33.5858 17.8119 34.1082 18.5076C38.1558 23.8969 44.0523 27.4127 50.708 28.4049C57.3637 29.3972 64.032 27.7547 69.4756 23.7805C70.1782 23.2674 70.8576 22.7168 71.5115 22.1308L67.7256 19.2758C64.4861 22.8878 58.2195 24.8112 51.3955 23.7938Z" fill="#4E555B"/>
        
        <mask id="path-3-outside-1" maskUnits="userSpaceOnUse" x="11.4568" y="25.1684" width="79.1441" height="72.9896" fill="black">
            <rect fill="white" x="11.4568" y="25.1684" width="79.1441" height="72.9896"/>
            <path fill-rule="evenodd" clip-rule="evenodd" d="M33.9466 35.7473C35.5589 33.5055 38.6949 32.9864 40.8811 34.6734C51.4942 42.8632 57.6928 50.3908 58.9951 60.1767L55.7174 64.7341L55.7174 64.7341L52.5424 69.1486L58.9978 60.1788L73.7045 70.7492C76.2222 72.5587 76.7949 76.0657 74.9838 78.5822C73.1728 81.0987 69.6637 81.6718 67.1461 79.8622L52.4393 69.2918L52.4395 69.2916C42.7477 71.1703 33.6392 67.6887 22.4984 60.2327C20.2035 58.6968 19.698 55.5585 21.3103 53.3167L27.6284 44.5321L27.6284 44.5321L33.9466 35.7473ZM71.7628 76.5635C72.4082 75.6661 72.2268 74.4319 71.3577 73.8068C70.4886 73.1817 69.2608 73.4024 68.6154 74.2998C67.9699 75.1972 68.1513 76.4315 69.0204 77.0566C69.8895 77.6817 71.1173 77.4609 71.7628 76.5635Z"/>
        </mask>
        
        <path fill-rule="evenodd" clip-rule="evenodd" d="M33.9466 35.7473C35.5589 33.5055 38.6949 32.9864 40.8811 34.6734C51.4942 42.8632 57.6928 50.3908 58.9951 60.1767L55.7174 64.7341L55.7174 64.7341L52.5424 69.1486L58.9978 60.1788L73.7045 70.7492C76.2222 72.5587 76.7949 76.0657 74.9838 78.5822C73.1728 81.0987 69.6637 81.6718 67.1461 79.8622L52.4393 69.2918L52.4395 69.2916C42.7477 71.1703 33.6392 67.6887 22.4984 60.2327C20.2035 58.6968 19.698 55.5585 21.3103 53.3167L27.6284 44.5321L27.6284 44.5321L33.9466 35.7473ZM71.7628 76.5635C72.4082 75.6661 72.2268 74.4319 71.3577 73.8068C70.4886 73.1817 69.2608 73.4024 68.6154 74.2998C67.9699 75.1972 68.1513 76.4315 69.0204 77.0566C69.8895 77.6817 71.1173 77.4609 71.7628 76.5635Z" fill="#4E555B"/>
        <path d="M40.8811 34.6734L43.6303 31.1108L43.6303 31.1108L40.8811 34.6734ZM58.9951 60.1767L62.6484 62.8042L63.6915 61.3539L63.4558 59.583L58.9951 60.1767ZM55.7174 64.7341L52.0641 62.1066L49.4366 65.7599L53.0899 68.3874L55.7174 64.7341ZM55.7174 64.7341L59.3706 67.3616L61.9981 63.7084L58.3449 61.0809L55.7174 64.7341ZM52.5424 69.1486L48.8891 66.5211L56.1949 71.7772L52.5424 69.1486ZM58.9978 60.1788L61.6242 56.5247L57.9724 53.8999L55.3454 57.5501L58.9978 60.1788ZM73.7045 70.7492L71.0782 74.4033L71.0782 74.4033L73.7045 70.7492ZM67.1461 79.8622L64.5197 83.5163L64.5197 83.5163L67.1461 79.8622ZM52.4393 69.2918L49.4882 65.8946L45.1934 69.6255L49.813 72.9459L52.4393 69.2918ZM52.4395 69.2916L55.3907 72.6888L68.0643 61.6792L51.5832 64.8739L52.4395 69.2916ZM22.4984 60.2327L25.0013 56.4929L22.4984 60.2327ZM21.3103 53.3167L24.9636 55.9442L21.3103 53.3167ZM27.6284 44.5321L31.2817 47.1596L33.9092 43.5063L30.2559 40.8788L27.6284 44.5321ZM27.6284 44.5321L23.9751 41.9046L21.3476 45.5578L25.0009 48.1853L27.6284 44.5321ZM69.0204 77.0566L66.3929 80.7098L66.3929 80.7098L69.0204 77.0566ZM43.6303 31.1108C39.3489 27.807 33.3314 28.8957 30.2933 33.1198L37.5998 38.3748C37.6836 38.2583 37.7935 38.1989 37.9018 38.1818C37.9552 38.1733 37.999 38.1771 38.0311 38.185C38.0591 38.1918 38.0913 38.2046 38.132 38.236L43.6303 31.1108ZM63.4558 59.583C61.9145 48.0014 54.5335 39.5245 43.6303 31.1108L38.132 38.236C48.4549 46.2018 53.4711 52.7801 54.5345 60.7703L63.4558 59.583ZM59.3706 67.3616L62.6484 62.8042L55.3419 57.5492L52.0641 62.1066L59.3706 67.3616ZM58.3449 61.0809L58.3448 61.0808L53.0899 68.3874L53.0899 68.3874L58.3449 61.0809ZM56.1957 71.7761L59.3706 67.3616L52.0641 62.1066L48.8891 66.5211L56.1957 71.7761ZM55.3454 57.5501L48.8899 66.52L56.1949 71.7772L62.6503 62.8074L55.3454 57.5501ZM76.3309 67.0951L61.6242 56.5247L56.3715 63.8328L71.0782 74.4033L76.3309 67.0951ZM78.6363 81.2108C81.8997 76.6762 80.8675 70.3558 76.3309 67.0951L71.0782 74.4033C71.5768 74.7617 71.6901 75.4551 71.3314 75.9536L78.6363 81.2108ZM64.5197 83.5163C69.0545 86.7757 75.3741 85.7436 78.6363 81.2108L71.3314 75.9536C70.9714 76.4537 70.2728 76.5678 69.7724 76.2082L64.5197 83.5163ZM49.813 72.9459L64.5197 83.5163L69.7724 76.2082L55.0657 65.6377L49.813 72.9459ZM49.4884 65.8945L49.4882 65.8946L55.3905 72.689L55.3907 72.6888L49.4884 65.8945ZM19.9956 63.9724C31.4409 71.6323 41.8256 75.9328 53.2959 73.7094L51.5832 64.8739C43.6698 66.4078 35.8374 63.7451 25.0013 56.4929L19.9956 63.9724ZM17.6571 50.6892C14.619 54.9134 15.5013 60.9646 19.9956 63.9724L25.0013 56.4929C24.9585 56.4643 24.9362 56.4379 24.9208 56.4135C24.9031 56.3856 24.8856 56.3452 24.8766 56.2919C24.8584 56.1838 24.8798 56.0607 24.9636 55.9442L17.6571 50.6892ZM23.9752 41.9046L17.6571 50.6892L24.9636 55.9442L31.2817 47.1596L23.9752 41.9046ZM25.0009 48.1853L25.0009 48.1853L30.2559 40.8788L30.2559 40.8788L25.0009 48.1853ZM30.2933 33.1198L23.9751 41.9046L31.2816 47.1596L37.5998 38.3748L30.2933 33.1198ZM68.7302 77.46C67.4724 76.5554 67.3837 74.9452 68.1095 73.9361L75.416 79.191C77.4327 76.3871 76.9813 72.3084 73.9852 70.1535L68.7302 77.46ZM72.2686 76.9273C71.5428 77.9365 69.988 78.3647 68.7302 77.46L73.9852 70.1535C70.9891 67.9987 66.9787 68.8684 64.9621 71.6724L72.2686 76.9273ZM71.6479 73.4033C72.9057 74.308 72.9944 75.9182 72.2686 76.9273L64.9621 71.6724C62.9455 74.4763 63.3968 78.555 66.3929 80.7098L71.6479 73.4033ZM68.1095 73.9361C68.8353 72.9269 70.3901 72.4987 71.6479 73.4033L66.3929 80.7098C69.389 82.8647 73.3994 81.995 75.416 79.191L68.1095 73.9361Z" fill="white" mask="url(#path-3-outside-1)"/>
    </g>
    <defs>
        <clipPath id="clip0">
            <rect width="82.8972" height="88.3971" fill="white" transform="translate(13.0348) rotate(8.47959)"/>
        </clipPath>
    </defs>
</svg>
