<svg width="32" height="25" viewBox="0 0 32 25" fill="none" xmlns="http://www.w3.org/2000/svg">
    <path d="M30.6787 17.4951L29.873 17.0312C29.9121 16.6162 29.9121 16.1963 29.873 15.7813L30.6836 15.3174C31.1475 15.0488 31.3574 14.502 31.1963 13.999C30.8447 12.8564 30.2246 11.7822 29.4043 10.8984C29.043 10.5029 28.4619 10.415 28.0029 10.6836L27.1973 11.1475C26.8555 10.9033 26.4941 10.6934 26.1133 10.5225V9.59473C26.1133 9.05762 25.7471 8.60352 25.2246 8.48633C24.0576 8.22266 22.8174 8.22266 21.6504 8.48633C21.1279 8.60352 20.7617 9.0625 20.7617 9.59473V10.5225C20.3809 10.6934 20.0195 10.9033 19.6777 11.1475L18.8721 10.6836C18.4082 10.415 17.832 10.5029 17.4707 10.8984C16.6553 11.7822 16.0352 12.8564 15.6787 13.9941C15.5176 14.502 15.7373 15.0586 16.1963 15.3223L17.002 15.7861C16.9629 16.2012 16.9629 16.6211 17.002 17.0361L16.1914 17.5C15.7373 17.7637 15.5176 18.3252 15.6787 18.8232C16.0303 19.9658 16.6504 21.04 17.4707 21.9238C17.832 22.3145 18.4082 22.4023 18.8721 22.1387L19.6777 21.6748C20.0195 21.9189 20.3809 22.1289 20.7617 22.2998V23.2275C20.7617 23.7646 21.1279 24.2187 21.6504 24.3359C22.2363 24.4678 22.8369 24.5312 23.4375 24.5312C24.0381 24.5312 24.6436 24.4678 25.2246 24.3359C25.7471 24.2187 26.1133 23.7598 26.1133 23.2275V22.2998C26.4941 22.1289 26.8555 21.9189 27.1973 21.6748L28.0029 22.1387C28.4619 22.4023 29.043 22.3145 29.4043 21.9238C30.2197 21.04 30.8398 19.9658 31.1963 18.8281C31.3574 18.3203 31.1377 17.7588 30.6787 17.4951ZM28.1592 17.8467L29.5947 18.6768C29.3408 19.375 28.96 20.0342 28.4814 20.6055L27.0459 19.7754C26.001 20.6689 25.8496 20.7568 24.5508 21.2158V22.876C23.8135 23.0029 23.0566 23.0029 22.3242 22.876V21.2158C21.0107 20.752 20.8496 20.6445 19.8291 19.7754L18.3936 20.6055C17.915 20.0293 17.5342 19.375 17.2803 18.6768L18.7158 17.8467C18.4766 16.5381 18.4619 16.3525 18.7158 14.9658L17.2803 14.1357C17.5342 13.4375 17.915 12.7832 18.3936 12.207L19.8291 13.0371C20.874 12.1436 21.0254 12.0557 22.3242 11.5967V9.93652C23.0615 9.81445 23.8232 9.81445 24.5508 9.93652V11.5967C25.8594 12.0605 26.0254 12.1631 27.0459 13.0371L28.4814 12.207C28.96 12.7832 29.3408 13.4375 29.5947 14.1357L28.1592 14.9658C28.3984 16.2744 28.4131 16.46 28.1592 17.8467ZM23.4375 13.2568C21.6992 13.2568 20.2881 14.6729 20.2881 16.4062C20.2881 18.1396 21.6992 19.5557 23.4375 19.5557C25.1758 19.5557 26.5869 18.1396 26.5869 16.4062C26.5869 14.6729 25.1758 13.2568 23.4375 13.2568V13.2568ZM23.4375 17.9932C22.5635 17.9932 21.8506 17.2803 21.8506 16.4062C21.8506 15.5322 22.5635 14.8193 23.4375 14.8193C24.3115 14.8193 25.0244 15.5322 25.0244 16.4062C25.0244 17.2803 24.3115 17.9932 23.4375 17.9932V17.9932ZM10.9375 12.5C14.3896 12.5 17.1875 9.70215 17.1875 6.25C17.1875 2.79785 14.3896 0 10.9375 0C7.48535 0 4.6875 2.79785 4.6875 6.25C4.6875 9.70215 7.48535 12.5 10.9375 12.5ZM10.9375 1.5625C13.5205 1.5625 15.625 3.66699 15.625 6.25C15.625 8.83301 13.5205 10.9375 10.9375 10.9375C8.35449 10.9375 6.25 8.83301 6.25 6.25C6.25 3.66699 8.35449 1.5625 10.9375 1.5625ZM2.34375 23.4375C1.91406 23.4375 1.5625 23.0859 1.5625 22.6562V20.625C1.5625 17.8662 3.80371 15.625 6.5625 15.625C7.51953 15.625 8.47168 16.4062 10.9375 16.4062C11.875 16.4062 12.793 16.2451 13.6963 15.9814C13.7207 15.415 13.7842 14.8584 13.9014 14.3213C13.4668 14.4531 12.4316 14.8438 10.9375 14.8438C8.6377 14.8438 7.96875 14.0625 6.5625 14.0625C2.93945 14.0625 0 17.002 0 20.625V22.6562C0 23.9502 1.0498 25 2.34375 25H18.7988C18.0176 24.5801 17.3047 24.0479 16.6748 23.4375H2.34375Z" fill="#4E555B"/>
</svg>
