<svg width="26" height="29" viewBox="0 0 26 29" fill="none" xmlns="http://www.w3.org/2000/svg">
    <g clip-path="url(#clip0)">
        <path d="M0.00268555 9.0625V9.05514L5.57411 9.05853V7.24604C5.5776 3.24834 8.91175 0 13.0079 0C17.1041 0 20.4365 3.25627 20.4318 7.25397V9.0625H16.7176V7.25C16.7182 6.28859 16.3274 5.36632 15.6313 4.68607C14.9352 4.00583 13.9907 3.62334 13.0056 3.62273C12.0205 3.62213 11.0755 4.00348 10.3785 4.68287C9.68151 5.36226 9.2896 6.28406 9.28898 7.24547V9.05797H13.0033L0.00268555 9.0625Z" fill="#A4A5BC"/>
        <path d="M0.00348828 9.05515L-0.00579743 24.4614C-0.00617862 25.0564 0.113535 25.6457 0.346508 26.1956C0.579482 26.7455 0.921152 27.2453 1.35201 27.6663C1.78287 28.0873 2.29448 28.4214 2.85763 28.6495C3.42079 28.8775 4.02445 28.9951 4.63416 28.9955L21.3484 29.0045C22.5798 29.0045 23.7607 28.5271 24.6314 27.6774C25.5021 26.8276 25.9913 25.675 25.9913 24.4733L26.0006 9.06704L0.00348828 9.05515ZM7.42858 14.0435C7.1531 14.0435 6.8838 13.9638 6.65475 13.8144C6.42569 13.665 6.24717 13.4527 6.14175 13.2043C6.03632 12.9559 6.00874 12.6826 6.06248 12.4189C6.11623 12.1552 6.24889 11.913 6.44368 11.7229C6.63847 11.5328 6.88666 11.4033 7.15685 11.3509C7.42703 11.2984 7.70709 11.3253 7.9616 11.4282C8.21611 11.5311 8.43365 11.7053 8.5867 11.9289C8.73975 12.1524 8.82144 12.4153 8.82144 12.6841C8.82144 13.0446 8.67469 13.3904 8.41348 13.6453C8.15227 13.9003 7.79799 14.0435 7.42858 14.0435ZM18.5714 14.0503C18.296 14.0503 18.0267 13.9706 17.7976 13.8212C17.5686 13.6718 17.39 13.4595 17.2846 13.2111C17.1792 12.9627 17.1516 12.6894 17.2053 12.4257C17.2591 12.162 17.3917 11.9198 17.5865 11.7297C17.7813 11.5396 18.0295 11.4101 18.2997 11.3577C18.5699 11.3052 18.8499 11.3321 19.1045 11.435C19.359 11.5379 19.5765 11.7121 19.7296 11.9357C19.8826 12.1592 19.9643 12.422 19.9643 12.6909C19.9643 13.0514 19.8175 13.3972 19.5563 13.6521C19.2951 13.9071 18.9408 14.0503 18.5714 14.0503Z" fill="#4A4756"/>
    </g>
    <defs>
        <clipPath id="clip0">
            <rect width="26" height="29" fill="white"/>
        </clipPath>
    </defs>
</svg>
