<svg width="30" height="34" viewBox="0 0 30 34" fill="none" xmlns="http://www.w3.org/2000/svg">
    <g clip-path="url(#clip0)">
        <path d="M0.00268555 10.4567V10.4482L6.43126 10.4522V8.36081C6.43527 3.74808 10.2824 0 15.0087 0C19.7351 0 23.5801 3.75723 23.5748 8.36996V10.4567H19.2891V8.36539C19.2898 7.25607 18.8389 6.19191 18.0357 5.40701C17.2325 4.62211 16.1427 4.18077 15.006 4.18008C13.8694 4.17939 12.779 4.6194 11.9748 5.40331C11.1706 6.18723 10.7184 7.25084 10.7176 8.36016V10.4515H15.0034L0.00268555 10.4567Z" fill="#A4A5BC"/>
        <path d="M0.00400147 10.4482L-0.00671282 28.2247C-0.00715265 28.9113 0.130978 29.5912 0.399794 30.2257C0.668609 30.8602 1.06284 31.4369 1.55999 31.9227C2.05714 32.4085 2.64746 32.7939 3.29725 33.0571C3.94704 33.3202 4.64357 33.4559 5.34708 33.4563L24.6328 33.4668C26.0536 33.4668 27.4162 32.9159 28.4209 31.9354C29.4255 30.9549 29.9899 29.6251 29.9899 28.2384L30.0007 10.462L0.00400147 10.4482ZM8.57141 16.204C8.25355 16.204 7.94283 16.112 7.67853 15.9397C7.41424 15.7673 7.20825 15.5224 7.08661 15.2358C6.96497 14.9491 6.93314 14.6338 6.99515 14.3295C7.05716 14.0252 7.21023 13.7458 7.43499 13.5264C7.65975 13.307 7.94612 13.1577 8.25788 13.0971C8.56963 13.0366 8.89277 13.0677 9.18644 13.1864C9.48011 13.3051 9.73111 13.5062 9.90771 13.7641C10.0843 14.022 10.1786 14.3253 10.1786 14.6355C10.1786 15.0515 10.0092 15.4505 9.70784 15.7446C9.40644 16.0388 8.99765 16.204 8.57141 16.204ZM21.4286 16.2119C21.1107 16.2119 20.8 16.1199 20.5357 15.9475C20.2714 15.7752 20.0654 15.5302 19.9438 15.2436C19.8221 14.957 19.7903 14.6416 19.8523 14.3374C19.9143 14.0331 20.0674 13.7536 20.2921 13.5342C20.5169 13.3149 20.8033 13.1655 21.115 13.105C21.4268 13.0445 21.7499 13.0755 22.0436 13.1942C22.3373 13.313 22.5883 13.514 22.7648 13.7719C22.9414 14.0299 23.0357 14.3331 23.0357 14.6434C23.0357 15.0593 22.8664 15.4583 22.565 15.7525C22.2636 16.0466 21.8548 16.2119 21.4286 16.2119Z" fill="#4A4756"/>
    </g>
    <defs>
        <clipPath id="clip0">
            <rect width="30" height="33.4615" fill="white"/>
        </clipPath>
    </defs>
</svg>
