<svg width="29" height="25" viewBox="0 0 29 25" fill="none" xmlns="http://www.w3.org/2000/svg">
    <path d="M0.372501 11.0256L3.77872 8.28837V4.03666C3.77872 3.94925 3.81402 3.86542 3.87685 3.80361C3.93968 3.7418 4.0249 3.70707 4.11376 3.70707H5.23055C5.31941 3.70707 5.40463 3.7418 5.46746 3.80361C5.53029 3.86542 5.56559 3.94925 5.56559 4.03666V6.8563L13.3725 0.587505C13.6918 0.334153 14.0897 0.195984 14.4999 0.195984C14.9102 0.195984 15.308 0.334153 15.6273 0.587505L28.6274 11.0256C28.7191 11.0991 28.7774 11.2054 28.7895 11.3212C28.8017 11.4369 28.7666 11.5527 28.6921 11.643L28.1282 12.3247C28.0537 12.4146 27.9463 12.4718 27.8291 12.484C27.712 12.4963 27.5947 12.4625 27.5028 12.3901L25.2211 10.5565V23.9049C25.2211 24.138 25.127 24.3615 24.9595 24.5264C24.7919 24.6912 24.5647 24.7838 24.3277 24.7838H17.1802C16.9433 24.7838 16.716 24.6912 16.5485 24.5264C16.3809 24.3615 16.2868 24.138 16.2868 23.9049V16.8736L12.7131 16.8901V23.9258C12.7131 24.1589 12.6189 24.3824 12.4514 24.5472C12.2838 24.7121 12.0566 24.8047 11.8196 24.8047L4.67215 24.7865C4.4352 24.7865 4.20795 24.6939 4.0404 24.5291C3.87285 24.3643 3.77872 24.1407 3.77872 23.9076V10.5565L1.49711 12.3901C1.4052 12.4636 1.2874 12.4981 1.16961 12.4862C1.05181 12.4742 0.943656 12.4168 0.868917 12.3264L0.304934 11.6447C0.267945 11.5997 0.240345 11.548 0.223717 11.4925C0.207089 11.437 0.201762 11.3789 0.20804 11.3214C0.214317 11.2638 0.232075 11.2081 0.260297 11.1574C0.288519 11.1066 0.326651 11.0618 0.372501 11.0256V11.0256ZM5.57173 23.0331H5.56615L10.9268 23.0496V16.009C10.9275 15.7766 11.0215 15.5539 11.1883 15.3893C11.355 15.2247 11.5812 15.1316 11.8174 15.1301L17.178 15.1153C17.2956 15.1149 17.412 15.1374 17.5208 15.1814C17.6295 15.2254 17.7283 15.2901 17.8116 15.3717C17.8948 15.4534 17.9609 15.5504 18.006 15.6572C18.051 15.764 18.0742 15.8785 18.0742 15.9942V23.0331H23.4343V9.12223L14.4999 1.94981L5.56559 9.12223L5.57173 23.0331Z" fill="#4E555B"/>
</svg>
