<svg width="50" height="50" viewBox="0 0 102 102" fill="none" xmlns="http://www.w3.org/2000/svg">
    <g clip-path="url(#clip0)">
        <path d="M14.2668 24.6766C13.7446 24.8494 13.3115 25.2216 13.0618 25.7123C12.8121 26.2029 12.7659 26.7724 12.9333 27.2968L18.0756 43.0759C18.248 43.5986 18.6196 44.0321 19.1096 44.2819C19.5996 44.5317 20.1684 44.5778 20.6923 44.41L23.0733 43.6531L16.6367 23.9155L14.2668 24.6766ZM74.6175 23.0605C73.9887 23.5752 73.3346 24.0579 72.6575 24.5069C67.4127 27.9848 60.9493 29.3681 54.4579 28.4004C47.9666 27.4326 42.1929 24.2249 38.1894 19.3681C37.6727 18.7412 37.1878 18.0886 36.7365 17.413L16.6367 23.9155L23.0733 43.6531L28.4743 41.9384C28.8096 41.8327 29.1662 41.8141 29.5106 41.8844C29.855 41.9547 30.1759 42.1115 30.443 42.3402C30.7101 42.5688 30.9148 42.8617 31.0377 43.1914C31.1605 43.521 31.1976 43.8766 31.1455 44.2246L26.2961 76.7519C26.1338 77.8405 26.4101 78.9488 27.0641 79.8332C27.7182 80.7175 28.6964 81.3054 29.7837 81.4675L62.58 86.357C63.6673 86.5191 64.7744 86.2421 65.658 85.587C66.5416 84.9319 67.1291 83.9523 67.2914 82.8638L72.1427 50.3237C72.1944 49.9756 72.3336 49.6463 72.5473 49.3668C72.761 49.0873 73.0421 48.8669 73.3643 48.7261C73.6865 48.5853 74.0392 48.5289 74.3891 48.5621C74.739 48.5953 75.0747 48.7171 75.3646 48.916L80.0249 52.1347L85.9803 43.6355L88.958 39.3859L91.9357 35.1363L74.6175 23.0605ZM93.9903 36.5689L91.9357 35.1363L88.958 39.3859L85.9803 43.6355L80.0249 52.1347L82.0719 53.5478L82.0796 53.5489C82.5302 53.8638 83.0874 53.9866 83.6285 53.8903C84.1697 53.7939 84.6505 53.4863 84.9653 53.0351L94.491 39.4559C94.6482 39.2332 94.76 38.9816 94.8201 38.7156C94.8801 38.4496 94.8872 38.1744 94.8409 37.9057C94.7946 37.637 94.6958 37.38 94.5503 37.1496C94.4047 36.9192 94.2152 36.7197 93.9925 36.5627L93.9903 36.5689Z" fill="#82878C"/>
        <path d="M55.0698 24.296C48.4222 23.3049 43.0922 19.9667 41.0488 16.0171L36.7365 17.413C37.1878 18.0886 37.6727 18.7412 38.1893 19.3681C42.1928 24.2249 47.9717 27.4333 54.4579 28.4004C60.9441 29.3674 67.4101 27.9844 72.6562 24.5067C73.3333 24.0577 73.9874 23.575 74.6162 23.0603L70.8985 20.4673C67.7919 23.6491 61.72 25.2874 55.0698 24.296Z" fill="#4E555B"/>
        <mask id="path-3-outside-1" maskUnits="userSpaceOnUse" x="15.3111" y="23.3926" width="81.1237" height="75.1971" fill="black">
            <rect fill="white" x="15.3111" y="23.3926" width="81.1237" height="75.1971"/>
            <path fill-rule="evenodd" clip-rule="evenodd" d="M38.3847 34.7833C39.9971 32.5415 43.1331 32.0224 45.3193 33.7094C55.9324 41.8991 62.1309 49.4268 63.4333 59.2127L60.1555 63.7701L60.1556 63.7701L56.9806 68.1846L63.436 59.2147L78.1427 69.7852C80.6603 71.5947 81.2331 75.1017 79.422 77.6181C77.6109 80.1346 74.1019 80.7078 71.5842 78.8982L56.8775 68.3278L56.8777 68.3276C47.1859 70.2063 38.0773 66.7247 26.9366 59.2686C24.6417 57.7328 24.1361 54.5945 25.7485 52.3527L32.0666 43.5681L32.0666 43.568L38.3847 34.7833ZM76.2009 75.5995C76.8464 74.7021 76.665 73.4679 75.7959 72.8428C74.9268 72.2177 73.699 72.4384 73.0535 73.3358C72.4081 74.2332 72.5894 75.4675 73.4586 76.0926C74.3277 76.7177 75.5555 76.4969 76.2009 75.5995Z"/>
        </mask>
        <path fill-rule="evenodd" clip-rule="evenodd" d="M38.3847 34.7833C39.9971 32.5415 43.1331 32.0224 45.3193 33.7094C55.9324 41.8991 62.1309 49.4268 63.4333 59.2127L60.1555 63.7701L60.1556 63.7701L56.9806 68.1846L63.436 59.2147L78.1427 69.7852C80.6603 71.5947 81.2331 75.1017 79.422 77.6181C77.6109 80.1346 74.1019 80.7078 71.5842 78.8982L56.8775 68.3278L56.8777 68.3276C47.1859 70.2063 38.0773 66.7247 26.9366 59.2686C24.6417 57.7328 24.1361 54.5945 25.7485 52.3527L32.0666 43.5681L32.0666 43.568L38.3847 34.7833ZM76.2009 75.5995C76.8464 74.7021 76.665 73.4679 75.7959 72.8428C74.9268 72.2177 73.699 72.4384 73.0535 73.3358C72.4081 74.2332 72.5894 75.4675 73.4586 76.0926C74.3277 76.7177 75.5555 76.4969 76.2009 75.5995Z" fill="#4E555B"/>
        <path d="M45.3193 33.7094L48.3739 29.7509L48.3739 29.7509L45.3193 33.7094ZM63.4333 59.2127L67.4925 62.1321L68.6515 60.5207L68.3896 58.553L63.4333 59.2127ZM60.1555 63.7701L56.0964 60.8506L53.1769 64.9098L57.2361 67.8292L60.1555 63.7701ZM60.1556 63.7701L64.2147 66.6895L67.1342 62.6304L63.075 59.7109L60.1556 63.7701ZM56.9806 68.1846L52.9214 65.2651L61.0389 71.1052L56.9806 68.1846ZM63.436 59.2147L66.3542 55.1547L62.2966 52.2383L59.3777 56.2941L63.436 59.2147ZM78.1427 69.7852L75.2245 73.8453L75.2245 73.8453L78.1427 69.7852ZM71.5842 78.8982L68.6661 82.9583L68.6661 82.9583L71.5842 78.8982ZM56.8775 68.3278L53.5985 64.5531L48.8265 68.6986L53.9593 72.3878L56.8775 68.3278ZM56.8777 68.3276L60.1567 72.1022L74.2385 59.8693L55.9262 63.419L56.8777 68.3276ZM26.9366 59.2686L29.7175 55.1134L26.9366 59.2686ZM25.7485 52.3527L29.8077 55.2722L25.7485 52.3527ZM32.0666 43.5681L36.1258 46.4875L39.0452 42.4283L34.986 39.5089L32.0666 43.5681ZM32.0666 43.568L28.0074 40.6486L25.088 44.7078L29.1471 47.6272L32.0666 43.568ZM73.4586 76.0926L70.5391 80.1517L70.5391 80.1517L73.4586 76.0926ZM48.3739 29.7509C43.8597 26.2675 37.5221 27.4195 34.3256 31.8639L42.4439 37.7028C42.4491 37.6956 42.4475 37.6994 42.4396 37.7042C42.4347 37.7072 42.4282 37.71 42.4181 37.7116C42.4074 37.7133 42.3842 37.7149 42.3503 37.7066C42.3118 37.6971 42.2802 37.6798 42.2647 37.6678L48.3739 29.7509ZM68.3896 58.553C66.8217 46.7719 59.3094 38.1895 48.3739 29.7509L42.2647 37.6678C52.5553 45.6088 57.4402 52.0816 58.477 59.8723L68.3896 58.553ZM64.2147 66.6895L67.4925 62.1321L59.3741 56.2932L56.0964 60.8506L64.2147 66.6895ZM63.075 59.7109L63.075 59.7109L57.2361 67.8292L57.2361 67.8293L63.075 59.7109ZM61.0397 71.104L64.2147 66.6895L56.0964 60.8507L52.9214 65.2651L61.0397 71.104ZM59.3777 56.2941L52.9223 65.2639L61.0389 71.1052L67.4943 62.1354L59.3777 56.2941ZM81.0609 65.7251L66.3542 55.1547L60.5178 63.2748L75.2245 73.8453L81.0609 65.7251ZM83.4803 80.5388C86.9051 75.78 85.8218 69.147 81.0609 65.7251L75.2245 73.8453C75.4989 74.0424 75.5611 74.4233 75.3637 74.6975L83.4803 80.5388ZM68.6661 82.9583C73.425 86.3788 80.0569 85.2957 83.4803 80.5388L75.3637 74.6975C75.165 74.9736 74.7787 75.0367 74.5024 74.8381L68.6661 82.9583ZM53.9593 72.3878L68.6661 82.9583L74.5024 74.8381L59.7957 64.2677L53.9593 72.3878ZM53.5986 64.553L53.5985 64.5531L60.1566 72.1024L60.1567 72.1022L53.5986 64.553ZM24.1556 63.4239C35.6349 71.1065 46.1614 75.498 57.8292 73.2362L55.9262 63.419C48.2104 64.9146 40.5198 62.3429 29.7175 55.1134L24.1556 63.4239ZM21.6893 49.4333C18.4928 53.8777 19.417 60.2525 24.1556 63.4239L29.7175 55.1134C29.7338 55.1242 29.7603 55.1487 29.7815 55.1822C29.8002 55.2117 29.8061 55.2342 29.8078 55.2448C29.8096 55.255 29.809 55.262 29.8077 55.2677C29.8056 55.2767 29.8025 55.2793 29.8077 55.2722L21.6893 49.4333ZM28.0074 40.6486L21.6893 49.4333L29.8077 55.2722L36.1258 46.4875L28.0074 40.6486ZM29.1471 47.6272L29.1471 47.6272L34.986 39.5089L34.986 39.5089L29.1471 47.6272ZM34.3256 31.8639L28.0074 40.6486L36.1257 46.4875L42.4439 37.7028L34.3256 31.8639ZM72.8764 76.9019C71.3823 75.8273 71.2636 73.9011 72.1418 72.6801L80.2601 78.5189C82.4291 75.5032 81.9478 71.1084 78.7153 68.7836L72.8764 76.9019ZM77.1127 76.2552C76.2345 77.4762 74.3706 77.9766 72.8764 76.9019L78.7153 68.7836C75.4829 66.4588 71.1634 67.4006 68.9943 70.4164L77.1127 76.2552ZM76.378 72.0334C77.8722 73.108 77.9908 75.0343 77.1127 76.2552L68.9943 70.4164C66.8253 73.4322 67.3067 77.8269 70.5391 80.1517L76.378 72.0334ZM72.1418 72.6801C73.0199 71.4591 74.8839 70.9588 76.378 72.0334L70.5391 80.1517C73.7716 82.4766 78.0911 81.5347 80.2601 78.5189L72.1418 72.6801Z" fill="white" mask="url(#path-3-outside-1)"/>
    </g>

    <defs>
        <clipPath id="clip0">
            <rect width="88.3971" height="88.3971" fill="white" transform="translate(13.8791 0.844299) rotate(8.47959)"/>
        </clipPath>
    </defs>
</svg>
