<svg width="48" height="50" viewBox="0 0 96 100" fill="none" xmlns="http://www.w3.org/2000/svg">
    <g clip-path="url(#clip0)">
    <path d="M11.2668 23.6766C10.7446 23.8494 10.3115 24.2216 10.0618 24.7123C9.8121 25.2029 9.76592 25.7724 9.93332 26.2968L15.0756 42.0759C15.248 42.5986 15.6196 43.0321 16.1096 43.2819C16.5996 43.5317 17.1684 43.5778 17.6923 43.41L20.0733 42.6531L13.6367 22.9155L11.2668 23.6766ZM71.6175 22.0605C70.9887 22.5752 70.3346 23.0579 69.6575 23.5069C64.4127 26.9848 57.9493 28.3681 51.4579 27.4004C44.9666 26.4326 39.1929 23.2249 35.1894 18.3681C34.6727 17.7412 34.1878 17.0886 33.7365 16.413L13.6367 22.9155L20.0733 42.6531L25.4743 40.9384C25.8096 40.8327 26.1662 40.8141 26.5106 40.8844C26.855 40.9547 27.1759 41.1115 27.443 41.3402C27.7101 41.5688 27.9148 41.8617 28.0377 42.1914C28.1605 42.521 28.1976 42.8766 28.1455 43.2246L23.2961 75.7519C23.1338 76.8405 23.4101 77.9488 24.0641 78.8332C24.7182 79.7175 25.6964 80.3054 26.7837 80.4675L59.58 85.357C60.6673 85.5191 61.7744 85.2421 62.658 84.587C63.5416 83.9319 64.1291 82.9523 64.2914 81.8638L69.1427 49.3237C69.1944 48.9756 69.3336 48.6463 69.5473 48.3668C69.761 48.0873 70.0421 47.8669 70.3643 47.7261C70.6865 47.5853 71.0392 47.5289 71.3891 47.5621C71.739 47.5953 72.0747 47.7171 72.3646 47.916L77.0249 51.1347L82.9803 42.6355L85.958 38.3859L88.9357 34.1363L71.6175 22.0605ZM90.9903 35.5689L88.9357 34.1363L85.958 38.3859L82.9803 42.6355L77.0249 51.1347L79.0719 52.5478L79.0796 52.5489C79.5302 52.8638 80.0874 52.9866 80.6285 52.8903C81.1697 52.7939 81.6505 52.4863 81.9653 52.0351L91.491 38.4559C91.6482 38.2332 91.76 37.9816 91.8201 37.7156C91.8801 37.4496 91.8872 37.1744 91.8409 36.9057C91.7946 36.637 91.6958 36.38 91.5503 36.1496C91.4047 35.9192 91.2152 35.7197 90.9925 35.5627L90.9903 35.5689Z" fill="#82878C"/>
    <path d="M52.0698 23.296C45.4222 22.3049 40.0922 18.9667 38.0488 15.0171L33.7365 16.413C34.1878 17.0886 34.6727 17.7412 35.1893 18.3681C39.1928 23.2249 44.9717 26.4333 51.4579 27.4004C57.9441 28.3674 64.4101 26.9844 69.6562 23.5067C70.3333 23.0577 70.9874 22.575 71.6162 22.0603L67.8985 19.4673C64.7919 22.6491 58.72 24.2874 52.0698 23.296Z" fill="#4E555B"/>
    
    <mask id="path-3-outside-1" maskUnits="userSpaceOnUse" x="12.3111" y="22.3926" width="81.1237" height="75.1971" fill="black">
        <rect fill="white" x="12.3111" y="22.3926" width="81.1237" height="75.1971"/>
        <path fill-rule="evenodd" clip-rule="evenodd" d="M35.3847 33.7833C36.9971 31.5415 40.1331 31.0224 42.3193 32.7094C52.9324 40.8991 59.1309 48.4268 60.4333 58.2127L57.1555 62.7701L57.1556 62.7701L53.9806 67.1846L60.436 58.2147L75.1427 68.7852C77.6603 70.5947 78.2331 74.1017 76.422 76.6181C74.6109 79.1346 71.1019 79.7078 68.5842 77.8982L53.8775 67.3278L53.8777 67.3276C44.1859 69.2063 35.0773 65.7247 23.9366 58.2686C21.6417 56.7328 21.1361 53.5945 22.7485 51.3527L29.0666 42.5681L29.0666 42.568L35.3847 33.7833ZM73.2009 74.5995C73.8464 73.7021 73.665 72.4679 72.7959 71.8428C71.9268 71.2177 70.699 71.4384 70.0535 72.3358C69.4081 73.2332 69.5894 74.4675 70.4586 75.0926C71.3277 75.7177 72.5555 75.4969 73.2009 74.5995Z"/>
    </mask>

    <path fill-rule="evenodd" clip-rule="evenodd" d="M35.3847 33.7833C36.9971 31.5415 40.1331 31.0224 42.3193 32.7094C52.9324 40.8991 59.1309 48.4268 60.4333 58.2127L57.1555 62.7701L57.1556 62.7701L53.9806 67.1846L60.436 58.2147L75.1427 68.7852C77.6603 70.5947 78.2331 74.1017 76.422 76.6181C74.6109 79.1346 71.1019 79.7078 68.5842 77.8982L53.8775 67.3278L53.8777 67.3276C44.1859 69.2063 35.0773 65.7247 23.9366 58.2686C21.6417 56.7328 21.1361 53.5945 22.7485 51.3527L29.0666 42.5681L29.0666 42.568L35.3847 33.7833ZM73.2009 74.5995C73.8464 73.7021 73.665 72.4679 72.7959 71.8428C71.9268 71.2177 70.699 71.4384 70.0535 72.3358C69.4081 73.2332 69.5894 74.4675 70.4586 75.0926C71.3277 75.7177 72.5555 75.4969 73.2009 74.5995Z" fill="#4E555B"/>
    <path d="M42.3193 32.7094L45.3739 28.7509L45.3739 28.7509L42.3193 32.7094ZM60.4333 58.2127L64.4925 61.1321L65.6515 59.5207L65.3896 57.553L60.4333 58.2127ZM57.1555 62.7701L53.0964 59.8506L50.1769 63.9098L54.2361 66.8292L57.1555 62.7701ZM57.1556 62.7701L61.2147 65.6895L64.1342 61.6304L60.075 58.7109L57.1556 62.7701ZM53.9806 67.1846L49.9214 64.2651L58.0389 70.1052L53.9806 67.1846ZM60.436 58.2147L63.3542 54.1547L59.2966 51.2383L56.3777 55.2941L60.436 58.2147ZM75.1427 68.7852L72.2245 72.8453L72.2245 72.8453L75.1427 68.7852ZM68.5842 77.8982L65.6661 81.9583L65.6661 81.9583L68.5842 77.8982ZM53.8775 67.3278L50.5985 63.5531L45.8265 67.6986L50.9593 71.3878L53.8775 67.3278ZM53.8777 67.3276L57.1567 71.1022L71.2385 58.8693L52.9262 62.419L53.8777 67.3276ZM23.9366 58.2686L26.7175 54.1134L23.9366 58.2686ZM22.7485 51.3527L26.8077 54.2722L22.7485 51.3527ZM29.0666 42.5681L33.1258 45.4875L36.0452 41.4283L31.986 38.5089L29.0666 42.5681ZM29.0666 42.568L25.0074 39.6486L22.088 43.7078L26.1471 46.6272L29.0666 42.568ZM70.4586 75.0926L67.5391 79.1517L67.5391 79.1517L70.4586 75.0926ZM45.3739 28.7509C40.8597 25.2675 34.5221 26.4195 31.3256 30.8639L39.4439 36.7028C39.4491 36.6956 39.4475 36.6994 39.4396 36.7042C39.4347 36.7072 39.4282 36.71 39.4181 36.7116C39.4074 36.7133 39.3842 36.7149 39.3503 36.7066C39.3118 36.6971 39.2802 36.6798 39.2647 36.6678L45.3739 28.7509ZM65.3896 57.553C63.8217 45.7719 56.3094 37.1895 45.3739 28.7509L39.2647 36.6678C49.5553 44.6088 54.4402 51.0816 55.477 58.8723L65.3896 57.553ZM61.2147 65.6895L64.4925 61.1321L56.3742 55.2932L53.0964 59.8506L61.2147 65.6895ZM60.075 58.7109L60.075 58.7109L54.2361 66.8292L54.2361 66.8293L60.075 58.7109ZM58.0397 70.104L61.2147 65.6895L53.0964 59.8507L49.9214 64.2651L58.0397 70.104ZM56.3777 55.2941L49.9223 64.2639L58.0389 70.1052L64.4943 61.1354L56.3777 55.2941ZM78.0609 64.7251L63.3542 54.1547L57.5178 62.2748L72.2245 72.8453L78.0609 64.7251ZM80.4803 79.5388C83.9051 74.78 82.8218 68.147 78.0609 64.7251L72.2245 72.8453C72.4989 73.0424 72.5611 73.4233 72.3637 73.6975L80.4803 79.5388ZM65.6661 81.9583C70.425 85.3788 77.0569 84.2957 80.4803 79.5388L72.3637 73.6975C72.165 73.9736 71.7787 74.0367 71.5024 73.8381L65.6661 81.9583ZM50.9593 71.3878L65.6661 81.9583L71.5024 73.8381L56.7957 63.2677L50.9593 71.3878ZM50.5986 63.553L50.5985 63.5531L57.1566 71.1024L57.1567 71.1022L50.5986 63.553ZM21.1556 62.4239C32.6349 70.1065 43.1614 74.498 54.8292 72.2362L52.9262 62.419C45.2104 63.9146 37.5198 61.3429 26.7175 54.1134L21.1556 62.4239ZM18.6893 48.4333C15.4928 52.8777 16.417 59.2525 21.1556 62.4239L26.7175 54.1134C26.7338 54.1242 26.7603 54.1487 26.7815 54.1822C26.8002 54.2117 26.8061 54.2342 26.8078 54.2448C26.8096 54.255 26.809 54.262 26.8077 54.2677C26.8056 54.2767 26.8025 54.2793 26.8077 54.2722L18.6893 48.4333ZM25.0074 39.6486L18.6893 48.4333L26.8077 54.2722L33.1258 45.4875L25.0074 39.6486ZM26.1471 46.6272L26.1471 46.6272L31.986 38.5089L31.986 38.5089L26.1471 46.6272ZM31.3256 30.8639L25.0074 39.6486L33.1257 45.4875L39.4439 36.7028L31.3256 30.8639ZM69.8764 75.9019C68.3823 74.8273 68.2636 72.9011 69.1418 71.6801L77.2601 77.5189C79.4291 74.5032 78.9478 70.1085 75.7153 67.7836L69.8764 75.9019ZM74.1127 75.2552C73.2345 76.4762 71.3706 76.9766 69.8764 75.9019L75.7153 67.7836C72.4829 65.4588 68.1634 66.4006 65.9943 69.4164L74.1127 75.2552ZM73.378 71.0334C74.8722 72.108 74.9908 74.0343 74.1127 75.2552L65.9943 69.4164C63.8253 72.4322 64.3067 76.8269 67.5391 79.1517L73.378 71.0334ZM69.1418 71.6801C70.0199 70.4591 71.8839 69.9588 73.378 71.0334L67.5391 79.1517C70.7716 81.4766 75.0911 80.5347 77.2601 77.5189L69.1418 71.6801Z" fill="white" mask="url(#path-3-outside-1)"/>
    </g>

    <defs>
        <clipPath id="clip0">
            <rect width="82.8972" height="88.3971" fill="white" transform="translate(13.5994 0.249847) rotate(8.47959)"/>
        </clipPath>
    </defs>
</svg>
