<svg width="30" height="25" viewBox="0 0 30 25" fill="none" xmlns="http://www.w3.org/2000/svg">
    <g clip-path="url(#clip0)">
        <path d="M29.8406 7.79295C29.943 7.90312 29.9999 8.05073 29.9991 8.2041C29.9982 8.35748 29.9396 8.50437 29.8359 8.61326L23.2125 15.459C23.1605 15.5126 23.0989 15.5551 23.0312 15.5839C22.9634 15.6127 22.8909 15.6273 22.8178 15.6268C22.7446 15.6264 22.6722 15.6109 22.6048 15.5812C22.5374 15.5516 22.4763 15.5084 22.425 15.4541L18.5953 11.4355C18.5438 11.3814 18.503 11.3172 18.4754 11.2467C18.4477 11.1761 18.4337 11.1006 18.4342 11.0244C18.4346 10.9482 18.4495 10.8728 18.4779 10.8026C18.5064 10.7324 18.5478 10.6687 18.6 10.6152L19.9172 9.25291C19.9691 9.19926 20.0307 9.15681 20.0985 9.12801C20.1662 9.0992 20.2387 9.08461 20.3119 9.08506C20.385 9.08552 20.4574 9.10101 20.5248 9.13065C20.5922 9.16029 20.6533 9.2035 20.7047 9.25779L22.8375 11.4941L27.75 6.416C27.8019 6.36234 27.8635 6.31989 27.9313 6.29109C27.999 6.26229 28.0715 6.2477 28.1447 6.24815C28.2179 6.2486 28.2902 6.26409 28.3576 6.29373C28.425 6.32338 28.4861 6.36658 28.5375 6.42088L29.8406 7.79295Z" fill="#A4A5BC"/>
        <path d="M10.5 12.4999C11.6867 12.4999 12.8467 12.1334 13.8334 11.4466C14.8201 10.7599 15.5892 9.78375 16.0433 8.64171C16.4974 7.49968 16.6162 6.24301 16.3847 5.03063C16.1532 3.81825 15.5818 2.7046 14.7426 1.83052C13.9035 0.956446 12.8344 0.361191 11.6705 0.120034C10.5067 -0.121124 9.30026 0.00264698 8.2039 0.475695C7.10754 0.948742 6.17047 1.74982 5.51118 2.77763C4.85189 3.80544 4.5 5.01381 4.5 6.24994C4.5 7.90755 5.13214 9.49726 6.25736 10.6694C7.38258 11.8415 8.9087 12.4999 10.5 12.4999ZM14.7 14.0624H13.9172C12.8457 14.5771 11.6799 14.8437 10.5 14.8437C9.32011 14.8437 8.15426 14.5771 7.08281 14.0624H6.3C4.62925 14.0628 3.02704 14.7544 1.84564 15.985C0.664241 17.2156 0.00037281 18.8846 0 20.6249L0 22.6562C0 23.2778 0.237053 23.8739 0.65901 24.3135C1.08097 24.753 1.65326 24.9999 2.25 24.9999H18.75C19.3467 24.9999 19.919 24.753 20.341 24.3135C20.7629 23.8739 21 23.2778 21 22.6562V20.6249C20.9996 18.8846 20.3358 17.2156 19.1544 15.985C17.973 14.7544 16.3708 14.0628 14.7 14.0624Z" fill="#4A4756"/>
    </g>
    <defs>
        <clipPath id="clip0">
            <rect width="30" height="25" fill="white"/>
        </clipPath>
    </defs>
</svg>
