<svg width="43" height="36" viewBox="0 0 43 36" fill="none" xmlns="http://www.w3.org/2000/svg">
    <g clip-path="url(#clip0)">
        <path d="M42.7716 11.2218C42.9184 11.3805 42.9999 11.593 42.9987 11.8139C42.9974 12.0348 42.9135 12.2463 42.7648 12.4031L33.2712 22.2609C33.1968 22.3382 33.1085 22.3993 33.0114 22.4408C32.9143 22.4822 32.8103 22.5033 32.7055 22.5026C32.6006 22.502 32.4969 22.4796 32.4003 22.437C32.3037 22.3943 32.2161 22.3321 32.1425 22.2539L26.6533 16.4672C26.5794 16.3892 26.521 16.2968 26.4814 16.1952C26.4418 16.0936 26.4217 15.9848 26.4223 15.8751C26.4229 15.7653 26.4443 15.6568 26.485 15.5557C26.5258 15.4546 26.5853 15.3629 26.66 15.2859L28.548 13.3242C28.6224 13.2469 28.7107 13.1858 28.8078 13.1443C28.9049 13.1028 29.0089 13.0818 29.1137 13.0825C29.2186 13.0831 29.3223 13.1054 29.4189 13.1481C29.5155 13.1908 29.6031 13.253 29.6767 13.3312L32.7337 16.5515L39.775 9.23903C39.8495 9.16177 39.9378 9.10064 40.0349 9.05917C40.1319 9.01769 40.2359 8.99668 40.3408 8.99733C40.4456 8.99798 40.5493 9.02029 40.6459 9.06297C40.7426 9.10566 40.8302 9.16787 40.9037 9.24606L42.7716 11.2218Z" fill="#91969B"/>
        <path d="M15.05 17.9999C16.7509 17.9999 18.4136 17.4721 19.8279 16.4832C21.2422 15.4942 22.3445 14.0886 22.9954 12.4441C23.6463 10.7996 23.8166 8.98996 23.4848 7.24413C23.1529 5.4983 22.3339 3.89465 21.1311 2.63598C19.9284 1.37731 18.396 0.520142 16.7278 0.172875C15.0595 -0.174391 13.3304 0.00383851 11.7589 0.685027C10.1875 1.36622 8.84434 2.51977 7.89936 3.99981C6.95438 5.47985 6.45 7.21991 6.45 8.99994C6.45 11.3869 7.35607 13.6761 8.96888 15.3639C10.5817 17.0517 12.7691 17.9999 15.05 17.9999ZM21.07 20.2499H19.948C18.4122 20.9911 16.7412 21.3749 15.05 21.3749C13.3588 21.3749 11.6878 20.9911 10.152 20.2499H9.03C6.63526 20.2505 4.33875 21.2463 2.64542 23.0184C0.952078 24.7905 0.000534362 27.1938 0 29.6999L0 32.6249C0 33.52 0.339776 34.3785 0.944581 35.0114C1.54939 35.6444 2.36968 35.9999 3.225 35.9999H26.875C27.7303 35.9999 28.5506 35.6444 29.1554 35.0114C29.7602 34.3785 30.1 33.52 30.1 32.6249V29.6999C30.0995 27.1938 29.1479 24.7905 27.4546 23.0184C25.7612 21.2463 23.4647 20.2505 21.07 20.2499Z" fill="#5A6670"/>
    </g>
    <defs>
        <clipPath id="clip0">
            <rect width="43" height="36" fill="white"/>
        </clipPath>
    </defs>
</svg>
